<svg width="14" height="13" viewBox="0 0 14 13" fill="none" xmlns="http://www.w3.org/2000/svg">
<g id="icon-voice">
<path id="Mask" fill-rule="evenodd" clip-rule="evenodd" d="M6.99999 2.9243C6.35657 2.9243 5.83332 3.37512 5.83332 3.92947V6.44241C5.83332 6.99677 6.35657 7.44759 6.99999 7.44759C7.64341 7.44759 8.16666 6.99677 8.16666 6.44241V3.92947C8.16666 3.37512 7.64341 2.9243 6.99999 2.9243ZM9.33332 6.44242C9.33332 7.55113 8.28682 8.45277 6.99999 8.45277C5.71316 8.45277 4.66666 7.55113 4.66666 6.44242V3.92948C4.66666 2.82077 5.71316 1.91913 6.99999 1.91913C8.28682 1.91913 9.33332 2.82077 9.33332 3.92948V6.44242ZM10.5 5.93983C10.8226 5.93983 11.0833 6.16499 11.0833 6.44241C11.0833 8.21152 9.55907 9.67506 7.58332 9.92032V10.9657H8.81124C9.09882 10.9657 9.33332 11.1677 9.33332 11.4155V11.5211C9.33332 11.7688 9.09882 11.9709 8.81124 11.9709H5.18874C4.90116 11.9709 4.66666 11.7688 4.66666 11.5211V11.4155C4.66666 11.1677 4.90116 10.9657 5.18874 10.9657H6.41666V9.92032C4.44091 9.67506 2.91666 8.21152 2.91666 6.44241C2.91666 6.16499 3.17741 5.93983 3.49999 5.93983C3.82257 5.93983 4.08332 6.16499 4.08332 6.44241C4.08332 7.82805 5.39174 8.95536 6.99999 8.95536C8.60824 8.95536 9.91666 7.82805 9.91666 6.44241C9.91666 6.16499 10.1774 5.93983 10.5 5.93983Z" fill="#231F20"/>
<mask id="mask0" mask-type="alpha" maskUnits="userSpaceOnUse" x="2" y="1" width="10" height="11">
<path id="Mask_2" fill-rule="evenodd" clip-rule="evenodd" d="M6.99999 2.9243C6.35657 2.9243 5.83332 3.37512 5.83332 3.92947V6.44241C5.83332 6.99677 6.35657 7.44759 6.99999 7.44759C7.64341 7.44759 8.16666 6.99677 8.16666 6.44241V3.92947C8.16666 3.37512 7.64341 2.9243 6.99999 2.9243ZM9.33332 6.44242C9.33332 7.55113 8.28682 8.45277 6.99999 8.45277C5.71316 8.45277 4.66666 7.55113 4.66666 6.44242V3.92948C4.66666 2.82077 5.71316 1.91913 6.99999 1.91913C8.28682 1.91913 9.33332 2.82077 9.33332 3.92948V6.44242ZM10.5 5.93983C10.8226 5.93983 11.0833 6.16499 11.0833 6.44241C11.0833 8.21152 9.55907 9.67506 7.58332 9.92032V10.9657H8.81124C9.09882 10.9657 9.33332 11.1677 9.33332 11.4155V11.5211C9.33332 11.7688 9.09882 11.9709 8.81124 11.9709H5.18874C4.90116 11.9709 4.66666 11.7688 4.66666 11.5211V11.4155C4.66666 11.1677 4.90116 10.9657 5.18874 10.9657H6.41666V9.92032C4.44091 9.67506 2.91666 8.21152 2.91666 6.44241C2.91666 6.16499 3.17741 5.93983 3.49999 5.93983C3.82257 5.93983 4.08332 6.16499 4.08332 6.44241C4.08332 7.82805 5.39174 8.95536 6.99999 8.95536C8.60824 8.95536 9.91666 7.82805 9.91666 6.44241C9.91666 6.16499 10.1774 5.93983 10.5 5.93983Z" fill="white"/>
</mask>
<g mask="url(#mask0)">
<g id="&#240;&#159;&#142;&#168; Color">
<rect id="Base" y="0.91394" width="14" height="12.0621" fill="#707C97"/>
</g>
</g>
</g>
</svg>
