<svg width="20" height="18" viewBox="0 0 20 18" fill="none" xmlns="http://www.w3.org/2000/svg">
<g id="icon-file-photo">
<path id="Mask" fill-rule="evenodd" clip-rule="evenodd" d="M15.8333 13.7969C15.8333 14.0913 15.555 14.3311 15.2133 14.3311H14.1667V12.8952H15.8333V13.7969ZM4.16667 13.7969V12.8952H5.83333V14.3311H4.78667C4.445 14.3311 4.16667 14.0913 4.16667 13.7969ZM4.78667 4.27935H5.83333V5.71532H4.16667V4.81353C4.16667 4.51916 4.445 4.27935 4.78667 4.27935ZM15.8333 4.81353V5.71532H14.1667V4.27935H15.2133C15.555 4.27935 15.8333 4.51916 15.8333 4.81353ZM14.1667 11.4592H15.8333V10.0232H14.1667V11.4592ZM14.1667 8.58724H15.8333V7.15128H14.1667V8.58724ZM7.5 14.3311H12.5V4.27935H7.5V14.3311ZM4.16667 11.4592H5.83333V10.0232H4.16667V11.4592ZM4.16667 8.58724H5.83333V7.15128H4.16667V8.58724ZM15.2133 2.84338H4.78667C3.52583 2.84338 2.5 3.72794 2.5 4.81353V13.7969C2.5 14.8832 3.52583 15.7671 4.78667 15.7671H15.2133C16.4742 15.7671 17.5 14.8832 17.5 13.7969V4.81353C17.5 3.72794 16.4742 2.84338 15.2133 2.84338Z" fill="#231F20"/>
<mask id="mask0" mask-type="alpha" maskUnits="userSpaceOnUse" x="2" y="2" width="16" height="14">
<path id="Mask_2" fill-rule="evenodd" clip-rule="evenodd" d="M15.8333 13.7969C15.8333 14.0913 15.555 14.3311 15.2133 14.3311H14.1667V12.8952H15.8333V13.7969ZM4.16667 13.7969V12.8952H5.83333V14.3311H4.78667C4.445 14.3311 4.16667 14.0913 4.16667 13.7969ZM4.78667 4.27935H5.83333V5.71532H4.16667V4.81353C4.16667 4.51916 4.445 4.27935 4.78667 4.27935ZM15.8333 4.81353V5.71532H14.1667V4.27935H15.2133C15.555 4.27935 15.8333 4.51916 15.8333 4.81353ZM14.1667 11.4592H15.8333V10.0232H14.1667V11.4592ZM14.1667 8.58724H15.8333V7.15128H14.1667V8.58724ZM7.5 14.3311H12.5V4.27935H7.5V14.3311ZM4.16667 11.4592H5.83333V10.0232H4.16667V11.4592ZM4.16667 8.58724H5.83333V7.15128H4.16667V8.58724ZM15.2133 2.84338H4.78667C3.52583 2.84338 2.5 3.72794 2.5 4.81353V13.7969C2.5 14.8832 3.52583 15.7671 4.78667 15.7671H15.2133C16.4742 15.7671 17.5 14.8832 17.5 13.7969V4.81353C17.5 3.72794 16.4742 2.84338 15.2133 2.84338Z" fill="white"/>
</mask>
<g mask="url(#mask0)">
<g id="&#240;&#159;&#142;&#168; Color">
<rect id="Base" y="0.689453" width="20" height="17.2316" fill="#00C305"/>
</g>
</g>
</g>
</svg>
