<svg width="20" height="19" viewBox="0 0 20 19" fill="none" xmlns="http://www.w3.org/2000/svg">
<g id="icon-file-photo">
<g id="&#240;&#159;&#142;&#168; Color">
<path id="Mask" fill-rule="evenodd" clip-rule="evenodd" d="M6.66667 8.14167C7.35667 8.14167 7.91667 7.65918 7.91667 7.06469C7.91667 6.4702 7.35667 5.98772 6.66667 5.98772C5.97667 5.98772 5.41667 6.4702 5.41667 7.06469C5.41667 7.65918 5.97667 8.14167 6.66667 8.14167ZM15 14.6035H5.4675L11.305 10.4069C11.51 10.2568 11.8817 10.2575 12.0825 10.4062L15.8333 13.1632V13.8855C15.8333 14.2818 15.46 14.6035 15 14.6035ZM5 4.55175H15C15.46 4.55175 15.8333 4.8734 15.8333 5.26973V11.2749L13.1642 9.31341C12.3392 8.70887 11.0483 8.70887 10.2308 9.3091L4.16667 13.6687V5.26973C4.16667 4.8734 4.54 4.55175 5 4.55175ZM15 3.11578H5C3.62167 3.11578 2.5 4.08219 2.5 5.26973V13.8855C2.5 15.0731 3.62167 16.0395 5 16.0395H15C16.3783 16.0395 17.5 15.0731 17.5 13.8855V5.26973C17.5 4.08219 16.3783 3.11578 15 3.11578Z" fill="#FF3366"/>
<mask id="mask0" mask-type="alpha" maskUnits="userSpaceOnUse" x="2" y="3" width="16" height="14">
<path id="Mask_2" fill-rule="evenodd" clip-rule="evenodd" d="M6.66667 8.14167C7.35667 8.14167 7.91667 7.65918 7.91667 7.06469C7.91667 6.4702 7.35667 5.98772 6.66667 5.98772C5.97667 5.98772 5.41667 6.4702 5.41667 7.06469C5.41667 7.65918 5.97667 8.14167 6.66667 8.14167ZM15 14.6035H5.4675L11.305 10.4069C11.51 10.2568 11.8817 10.2575 12.0825 10.4062L15.8333 13.1632V13.8855C15.8333 14.2818 15.46 14.6035 15 14.6035ZM5 4.55175H15C15.46 4.55175 15.8333 4.8734 15.8333 5.26973V11.2749L13.1642 9.31341C12.3392 8.70887 11.0483 8.70887 10.2308 9.3091L4.16667 13.6687V5.26973C4.16667 4.8734 4.54 4.55175 5 4.55175ZM15 3.11578H5C3.62167 3.11578 2.5 4.08219 2.5 5.26973V13.8855C2.5 15.0731 3.62167 16.0395 5 16.0395H15C16.3783 16.0395 17.5 15.0731 17.5 13.8855V5.26973C17.5 4.08219 16.3783 3.11578 15 3.11578Z" fill="white"/>
</mask>
<g mask="url(#mask0)">
<g id="&#240;&#159;&#142;&#168; Color_2">
<rect id="Base" y="0.961853" width="20" height="17.2316" fill="#FF3366"/>
</g>
</g>
</g>
</g>
</svg>
