<?xml version="1.0" encoding="utf-8"?><svg width="20" height="18" fill="none" xmlns="http://www.w3.org/2000/svg" viewBox="0 0 20 18"><path fill-rule="evenodd" clip-rule="evenodd" d="M15.833 13.797c0 .294-.278.534-.62.534h-1.046v-1.436h1.666v.902zm-11.666 0v-.902h1.666v1.436H4.787c-.342 0-.62-.24-.62-.534zm.62-9.518h1.046v1.436H4.167v-.901c0-.295.278-.535.62-.535zm11.046.535v.901h-1.666V4.28h1.046c.342 0 .62.24.62.535zm-1.666 6.645h1.666v-1.436h-1.666v1.436zm0-2.872h1.666V7.151h-1.666v1.436zM7.5 14.331h5V4.28h-5v10.052zM4.167 11.46h1.666v-1.436H4.167v1.436zm0-2.872h1.666V7.151H4.167v1.436zm11.046-5.744H4.787c-1.261 0-2.287.885-2.287 1.97v8.984c0 1.086 1.026 1.97 2.287 1.97h10.426c1.261 0 2.287-.884 2.287-1.97V4.814c0-1.086-1.026-1.97-2.287-1.97z" fill="#231F20"/><mask id="la" maskUnits="userSpaceOnUse" x="2" y="2" width="16" height="14"><path fill-rule="evenodd" clip-rule="evenodd" d="M15.833 13.797c0 .294-.278.534-.62.534h-1.046v-1.436h1.666v.902zm-11.666 0v-.902h1.666v1.436H4.787c-.342 0-.62-.24-.62-.534zm.62-9.518h1.046v1.436H4.167v-.901c0-.295.278-.535.62-.535zm11.046.535v.901h-1.666V4.28h1.046c.342 0 .62.24.62.535zm-1.666 6.645h1.666v-1.436h-1.666v1.436zm0-2.872h1.666V7.151h-1.666v1.436zM7.5 14.331h5V4.28h-5v10.052zM4.167 11.46h1.666v-1.436H4.167v1.436zm0-2.872h1.666V7.151H4.167v1.436zm11.046-5.744H4.787c-1.261 0-2.287.885-2.287 1.97v8.984c0 1.086 1.026 1.97 2.287 1.97h10.426c1.261 0 2.287-.884 2.287-1.97V4.814c0-1.086-1.026-1.97-2.287-1.97z" fill="#fff"/></mask><g mask="url(#la)"><path fill="#00C305" d="M0 .689h20v17.232H0z"/></g></svg>