<?xml version="1.0" encoding="utf-8"?><svg width="14" height="13" fill="none" xmlns="http://www.w3.org/2000/svg" viewBox="0 0 14 13"><path fill-rule="evenodd" clip-rule="evenodd" d="M7 2.924c-.643 0-1.167.451-1.167 1.005v2.513c0 .555.524 1.006 1.167 1.006s1.167-.451 1.167-1.006V3.93c0-.554-.524-1.005-1.167-1.005zm2.333 3.518c0 1.11-1.046 2.01-2.333 2.01-1.287 0-2.333-.9-2.333-2.01V3.93c0-1.108 1.046-2.01 2.333-2.01 1.287 0 2.333.902 2.333 2.01v2.513zM10.5 5.94c.323 0 .583.225.583.502 0 1.77-1.524 3.233-3.5 3.478v1.046h1.228c.288 0 .522.202.522.45v.105c0 .248-.234.45-.522.45H5.19c-.288 0-.522-.202-.522-.45v-.106c0-.247.234-.45.522-.45h1.228V9.92c-1.976-.245-3.5-1.708-3.5-3.478 0-.277.26-.502.583-.502.323 0 .583.225.583.502 0 1.386 1.309 2.513 2.917 2.513 1.608 0 2.917-1.127 2.917-2.513 0-.277.26-.502.583-.502z" fill="#231F20"/><mask id="ua" maskUnits="userSpaceOnUse" x="2" y="1" width="10" height="11"><path fill-rule="evenodd" clip-rule="evenodd" d="M7 2.924c-.643 0-1.167.451-1.167 1.005v2.513c0 .555.524 1.006 1.167 1.006s1.167-.451 1.167-1.006V3.93c0-.554-.524-1.005-1.167-1.005zm2.333 3.518c0 1.11-1.046 2.01-2.333 2.01-1.287 0-2.333-.9-2.333-2.01V3.93c0-1.108 1.046-2.01 2.333-2.01 1.287 0 2.333.902 2.333 2.01v2.513zM10.5 5.94c.323 0 .583.225.583.502 0 1.77-1.524 3.233-3.5 3.478v1.046h1.228c.288 0 .522.202.522.45v.105c0 .248-.234.45-.522.45H5.19c-.288 0-.522-.202-.522-.45v-.106c0-.247.234-.45.522-.45h1.228V9.92c-1.976-.245-3.5-1.708-3.5-3.478 0-.277.26-.502.583-.502.323 0 .583.225.583.502 0 1.386 1.309 2.513 2.917 2.513 1.608 0 2.917-1.127 2.917-2.513 0-.277.26-.502.583-.502z" fill="#fff"/></mask><g mask="url(#ua)"><path fill="#707C97" d="M0 .914h14v12.062H0z"/></g></svg>