<?xml version="1.0" encoding="utf-8"?><svg width="20" height="19" fill="none" xmlns="http://www.w3.org/2000/svg" viewBox="0 0 20 19"><path fill-rule="evenodd" clip-rule="evenodd" d="M6.667 8.142c.69 0 1.25-.483 1.25-1.077 0-.595-.56-1.077-1.25-1.077s-1.25.482-1.25 1.077c0 .594.56 1.077 1.25 1.077zM15 14.604H5.468l5.837-4.197c.205-.15.577-.15.777 0l3.751 2.756v.723c0 .396-.373.718-.833.718zM5 4.552h10c.46 0 .833.321.833.718v6.005l-2.669-1.962c-.825-.604-2.116-.604-2.933-.004l-6.064 4.36v-8.4c0-.396.373-.717.833-.717zm10-1.436H5c-1.378 0-2.5.966-2.5 2.154v8.616c0 1.187 1.122 2.154 2.5 2.154h10c1.378 0 2.5-.967 2.5-2.154V5.27c0-1.188-1.122-2.154-2.5-2.154z" fill="#F36"/><mask id="ja" maskUnits="userSpaceOnUse" x="2" y="3" width="16" height="14"><path fill-rule="evenodd" clip-rule="evenodd" d="M6.667 8.142c.69 0 1.25-.483 1.25-1.077 0-.595-.56-1.077-1.25-1.077s-1.25.482-1.25 1.077c0 .594.56 1.077 1.25 1.077zM15 14.604H5.468l5.837-4.197c.205-.15.577-.15.777 0l3.751 2.756v.723c0 .396-.373.718-.833.718zM5 4.552h10c.46 0 .833.321.833.718v6.005l-2.669-1.962c-.825-.604-2.116-.604-2.933-.004l-6.064 4.36v-8.4c0-.396.373-.717.833-.717zm10-1.436H5c-1.378 0-2.5.966-2.5 2.154v8.616c0 1.187 1.122 2.154 2.5 2.154h10c1.378 0 2.5-.967 2.5-2.154V5.27c0-1.188-1.122-2.154-2.5-2.154z" fill="#fff"/></mask><g mask="url(#ja)"><path fill="#F36" d="M0 .962h20v17.232H0z"/></g></svg>