<?xml version="1.0" encoding="utf-8"?><svg viewBox="0 0 24 24" xmlns="http://www.w3.org/2000/svg" xmlns:xlink="http://www.w3.org/1999/xlink"><style>:root>svg{display:none}:root>svg:target{display:block}</style><svg fill="none" viewBox="0 0 19 19" id="chevron-down" xmlns="http://www.w3.org/2000/svg"><path d="M4.75 7.125l4.75 4.75 4.75-4.75" stroke="#0D1C2E" stroke-width="2" stroke-linecap="round" stroke-linejoin="round"/></svg><svg fill="none" viewBox="0 0 20 20" id="file-text" xmlns="http://www.w3.org/2000/svg"><path fill-rule="evenodd" clip-rule="evenodd" d="M10 11.667H7.5A.834.834 0 017.5 10H10a.834.834 0 010 1.667zm-3.333 2.5c0-.46.373-.834.833-.834h5a.833.833 0 110 1.667h-5a.834.834 0 01-.833-.833zm7.87 2.5H5.463c-.255 0-.463-.187-.463-.417V3.75c0-.23.208-.417.463-.417H10v2.625c0 1.31 1.014 2.375 2.262 2.375H15v7.917c0 .23-.207.417-.463.417zm-2.87-12.519l2.285 2.519h-1.69c-.328 0-.595-.318-.595-.709v-1.81zM16.45 6.94l-4.536-5a.833.833 0 00-.618-.273H5.463c-1.174 0-2.13.935-2.13 2.083v12.5c0 1.148.956 2.083 2.13 2.083h9.074c1.174 0 2.13-.935 2.13-2.083V7.5a.833.833 0 00-.217-.56z" fill="#2A8BF2"/><mask id="ba" maskUnits="userSpaceOnUse" x="3" y="1" width="14" height="18"><path fill-rule="evenodd" clip-rule="evenodd" d="M10 11.667H7.5A.834.834 0 017.5 10H10a.834.834 0 010 1.667zm-3.333 2.5c0-.46.373-.834.833-.834h5a.833.833 0 110 1.667h-5a.834.834 0 01-.833-.833zm7.87 2.5H5.463c-.255 0-.463-.187-.463-.417V3.75c0-.23.208-.417.463-.417H10v2.625c0 1.31 1.014 2.375 2.262 2.375H15v7.917c0 .23-.207.417-.463.417zm-2.87-12.519l2.285 2.519h-1.69c-.328 0-.595-.318-.595-.709v-1.81zM16.45 6.94l-4.536-5a.833.833 0 00-.618-.273H5.463c-1.174 0-2.13.935-2.13 2.083v12.5c0 1.148.956 2.083 2.13 2.083h9.074c1.174 0 2.13-.935 2.13-2.083V7.5a.833.833 0 00-.217-.56z" fill="#fff"/></mask><g mask="url(#ba)"><path fill="#2A8BF2" d="M0 0h20v20H0z"/></g></svg><svg fill="none" viewBox="0 0 16 16" id="icon-all-done" xmlns="http://www.w3.org/2000/svg"><path fill-rule="evenodd" clip-rule="evenodd" d="M11.077 4.142a.665.665 0 00-.935.114L5.44 10.26 3.186 7.463a.667.667 0 00-1.04.836l2.78 3.452a.668.668 0 00.52.249h.005a.665.665 0 00.52-.256l5.22-6.667a.665.665 0 00-.114-.935zm3.334 0a.665.665 0 00-.936.114L8.772 10.26l-.403-.5-.843 1.079.733.911a.668.668 0 00.52.249h.005a.665.665 0 00.52-.256l5.22-6.667a.665.665 0 00-.113-.935zM6.653 7.63L5.81 8.707 5.48 8.3a.667.667 0 011.038-.836l.134.166z" fill="#231F20"/><mask id="ca" maskUnits="userSpaceOnUse" x="1" y="3" width="14" height="9"><path fill-rule="evenodd" clip-rule="evenodd" d="M11.077 4.142a.665.665 0 00-.935.114L5.44 10.26 3.186 7.463a.667.667 0 00-1.04.836l2.78 3.452a.668.668 0 00.52.249h.005a.665.665 0 00.52-.256l5.22-6.667a.665.665 0 00-.114-.935zm3.334 0a.665.665 0 00-.936.114L8.772 10.26l-.403-.5-.843 1.079.733.911a.668.668 0 00.52.249h.005a.665.665 0 00.52-.256l5.22-6.667a.665.665 0 00-.113-.935zM6.653 7.63L5.81 8.707 5.48 8.3a.667.667 0 011.038-.836l.134.166z" fill="#fff"/></mask><g mask="url(#ca)"><path fill="#B7BDCB" d="M0 0h16v16H0z"/></g></svg><svg fill="none" viewBox="0 0 24 24" id="icon-attachment" xmlns="http://www.w3.org/2000/svg"><path fill-rule="evenodd" clip-rule="evenodd" d="M9.294 21c-1.656 0-3.23-.666-4.432-1.875-2.388-2.403-2.486-6.213-.22-8.494l7.386-7.43A4.085 4.085 0 0114.95 2c1.194 0 2.328.479 3.192 1.349 1.721 1.731 1.788 4.482.146 6.132l-7.395 7.429a2.535 2.535 0 01-1.815.748 2.738 2.738 0 01-1.95-.821c-1.053-1.061-1.086-2.752-.073-3.772L13.88 6.21a.999.999 0 111.416 1.41l-6.823 6.856c-.24.242-.207.669.074.951a.76.76 0 00.53.231.55.55 0 00.399-.158l7.394-7.429c.867-.873.802-2.358-.146-3.312-.906-.912-2.446-.984-3.277-.148l-7.386 7.43c-1.494 1.503-1.396 4.049.22 5.674C7.104 18.544 8.174 19 9.294 19a3.648 3.648 0 002.61-1.064l7.387-7.43a1 1 0 111.418 1.41l-7.386 7.43C12.262 20.412 10.83 21 9.293 21z" fill="#231F20"/><mask id="da" maskUnits="userSpaceOnUse" x="3" y="2" width="18" height="19"><path fill-rule="evenodd" clip-rule="evenodd" d="M9.294 21c-1.656 0-3.23-.666-4.432-1.875-2.388-2.403-2.486-6.213-.22-8.494l7.386-7.43A4.085 4.085 0 0114.95 2c1.194 0 2.328.479 3.192 1.349 1.721 1.731 1.788 4.482.146 6.132l-7.395 7.429a2.535 2.535 0 01-1.815.748 2.738 2.738 0 01-1.95-.821c-1.053-1.061-1.086-2.752-.073-3.772L13.88 6.21a.999.999 0 111.416 1.41l-6.823 6.856c-.24.242-.207.669.074.951a.76.76 0 00.53.231.55.55 0 00.399-.158l7.394-7.429c.867-.873.802-2.358-.146-3.312-.906-.912-2.446-.984-3.277-.148l-7.386 7.43c-1.494 1.503-1.396 4.049.22 5.674C7.104 18.544 8.174 19 9.294 19a3.648 3.648 0 002.61-1.064l7.387-7.43a1 1 0 111.418 1.41l-7.386 7.43C12.262 20.412 10.83 21 9.293 21z" fill="#fff"/></mask><g mask="url(#da)"><path fill="#707C97" d="M0 0h24v24H0z"/></g></svg><svg fill="none" viewBox="0 0 24 24" id="icon-calendar" xmlns="http://www.w3.org/2000/svg"><path fill-rule="evenodd" clip-rule="evenodd" d="M7 16c0-.55.45-1 1-1s1 .45 1 1-.45 1-1 1-1-.45-1-1zm5-1h4c.55 0 1 .45 1 1s-.45 1-1 1h-4c-.55 0-1-.45-1-1s.45-1 1-1zm6 5H6c-.551 0-1-.449-1-1v-6h14v6c0 .551-.449 1-1 1zM6 6h1v1c0 .55.45 1 1 1s1-.45 1-1V6h6v1c0 .55.45 1 1 1s1-.45 1-1V6h1c.551 0 1 .449 1 1v4H5V7c0-.551.449-1 1-1zm12-2h-1V3c0-.55-.45-1-1-1s-1 .45-1 1v1H9V3c0-.55-.45-1-1-1s-1 .45-1 1v1H6C4.346 4 3 5.346 3 7v12c0 1.654 1.346 3 3 3h12c1.654 0 3-1.346 3-3V7c0-1.654-1.346-3-3-3z" fill="#231F20"/><mask id="ea" maskUnits="userSpaceOnUse" x="3" y="2" width="18" height="20"><path fill-rule="evenodd" clip-rule="evenodd" d="M7 16c0-.55.45-1 1-1s1 .45 1 1-.45 1-1 1-1-.45-1-1zm5-1h4c.55 0 1 .45 1 1s-.45 1-1 1h-4c-.55 0-1-.45-1-1s.45-1 1-1zm6 5H6c-.551 0-1-.449-1-1v-6h14v6c0 .551-.449 1-1 1zM6 6h1v1c0 .55.45 1 1 1s1-.45 1-1V6h6v1c0 .55.45 1 1 1s1-.45 1-1V6h1c.551 0 1 .449 1 1v4H5V7c0-.551.449-1 1-1zm12-2h-1V3c0-.55-.45-1-1-1s-1 .45-1 1v1H9V3c0-.55-.45-1-1-1s-1 .45-1 1v1H6C4.346 4 3 5.346 3 7v12c0 1.654 1.346 3 3 3h12c1.654 0 3-1.346 3-3V7c0-1.654-1.346-3-3-3z" fill="#fff"/></mask><g mask="url(#ea)"><path fill="#707C97" d="M0 0h24v24H0z"/></g></svg><svg fill="none" viewBox="0 0 24 24" id="icon-chat" xmlns="http://www.w3.org/2000/svg"><mask id="fa" maskUnits="userSpaceOnUse" x="2" y="2" width="21" height="20"><path fill-rule="evenodd" clip-rule="evenodd" d="M16 13a1 1 0 110-2.002A1 1 0 0116 13zm-4 0a1 1 0 110-2.002A1 1 0 0112 13zm-4 0a1 1 0 110-2.002A1 1 0 018 13zm11.07-8.072c-2.283-2.284-5.444-3.303-8.673-2.804-4.077.636-7.457 3.92-8.22 7.987a10.016 10.016 0 00.61 5.765c.099.23.129.446.09.64l-.857 4.287a.999.999 0 001.176 1.176l4.283-.856c.246-.047.485.022.644.088 1.814.767 3.808.977 5.765.611 4.067-.763 7.35-4.143 7.987-8.22.503-3.228-.52-6.389-2.804-8.674z" fill="#fff"/></mask><g mask="url(#fa)"><path fill="#707C97" d="M0 0h24v24H0z"/></g><defs><linearGradient id="fpaint0_linear" x1="6" y1="4" x2="18" y2="19.5" gradientUnits="userSpaceOnUse"><stop stop-color="#7CB8F7"/><stop offset=".934" stop-color="#2A8BF2"/></linearGradient></defs></svg><svg fill="none" viewBox="0 0 16 16" id="icon-checkmark" xmlns="http://www.w3.org/2000/svg"><path fill-rule="evenodd" clip-rule="evenodd" d="M6.576 12a.667.667 0 01-.486-.21L2.848 8.337a.666.666 0 11.97-.912l2.75 2.927 5.606-6.135a.667.667 0 01.985.899l-6.091 6.667A.665.665 0 016.58 12h-.004z" fill="#231F20"/><mask id="ga" maskUnits="userSpaceOnUse" x="2" y="4" width="12" height="8"><path fill-rule="evenodd" clip-rule="evenodd" d="M6.576 12a.667.667 0 01-.486-.21L2.848 8.337a.666.666 0 11.97-.912l2.75 2.927 5.606-6.135a.667.667 0 01.985.899l-6.091 6.667A.665.665 0 016.58 12h-.004z" fill="#fff"/></mask><g mask="url(#ga)"><path fill="#B7BDCB" d="M0 0h16v16H0z"/></g></svg><svg fill="none" viewBox="0 0 24 24" id="icon-contact" xmlns="http://www.w3.org/2000/svg"><path fill-rule="evenodd" clip-rule="evenodd" d="M14 7c0-1.103-.897-2-2-2s-2 .897-2 2 .897 2 2 2 2-.897 2-2zm2 0c0 2.206-1.794 4-4 4S8 9.206 8 7s1.794-4 4-4 4 1.794 4 4zM5 20c0-3.86 3.141-7 7-7s7 3.14 7 7a1 1 0 11-2 0c0-2.757-2.243-5-5-5s-5 2.243-5 5a1 1 0 11-2 0z" fill="#231F20"/><mask id="ha" maskUnits="userSpaceOnUse" x="5" y="3" width="14" height="18"><path fill-rule="evenodd" clip-rule="evenodd" d="M14 7c0-1.103-.897-2-2-2s-2 .897-2 2 .897 2 2 2 2-.897 2-2zm2 0c0 2.206-1.794 4-4 4S8 9.206 8 7s1.794-4 4-4 4 1.794 4 4zM5 20c0-3.86 3.141-7 7-7s7 3.14 7 7a1 1 0 11-2 0c0-2.757-2.243-5-5-5s-5 2.243-5 5a1 1 0 11-2 0z" fill="#fff"/></mask><g mask="url(#ha)"><path fill="#707C97" d="M0 0h24v24H0z"/></g></svg><svg fill="none" viewBox="0 0 24 24" id="icon-file" xmlns="http://www.w3.org/2000/svg"><path fill-rule="evenodd" clip-rule="evenodd" d="M17.444 20H6.555C6.25 20 6 19.776 6 19.5v-15c0-.276.25-.5.555-.5H11v4.15C11 9.722 12.217 11 13.714 11H18v8.5c0 .276-.25.5-.556.5zm.205-11h-3.935C13.32 9 13 8.619 13 8.15V4h.112l4.537 5zm2.091-.672l-5.444-6a.998.998 0 00-.74-.328h-7C5.145 2 4 3.122 4 4.5v15C4 20.878 5.146 22 6.555 22h10.89C18.852 22 20 20.878 20 19.5V9a1 1 0 00-.26-.672z" fill="#231F20"/><mask id="ia" maskUnits="userSpaceOnUse" x="4" y="2" width="17" height="20"><path fill-rule="evenodd" clip-rule="evenodd" d="M17.444 20H6.555C6.25 20 6 19.776 6 19.5v-15c0-.276.25-.5.555-.5H11v4.15C11 9.722 12.217 11 13.714 11H18v8.5c0 .276-.25.5-.556.5zm.205-11h-3.935C13.32 9 13 8.619 13 8.15V4h.112l4.537 5zm2.091-.672l-5.444-6a.998.998 0 00-.74-.328h-7C5.145 2 4 3.122 4 4.5v15C4 20.878 5.146 22 6.555 22h10.89C18.852 22 20 20.878 20 19.5V9a1 1 0 00-.26-.672z" fill="#fff"/></mask><g mask="url(#ia)"><path fill="#fff" d="M0 0h24v24H0z"/></g></svg><svg fill="none" viewBox="0 0 20 19" id="icon-file-photo" xmlns="http://www.w3.org/2000/svg"><path fill-rule="evenodd" clip-rule="evenodd" d="M6.667 8.142c.69 0 1.25-.483 1.25-1.077 0-.595-.56-1.077-1.25-1.077s-1.25.482-1.25 1.077c0 .594.56 1.077 1.25 1.077zM15 14.604H5.468l5.837-4.197c.205-.15.577-.15.777 0l3.751 2.756v.723c0 .396-.373.718-.833.718zM5 4.552h10c.46 0 .833.321.833.718v6.005l-2.669-1.962c-.825-.604-2.116-.604-2.933-.004l-6.064 4.36v-8.4c0-.396.373-.717.833-.717zm10-1.436H5c-1.378 0-2.5.966-2.5 2.154v8.616c0 1.187 1.122 2.154 2.5 2.154h10c1.378 0 2.5-.967 2.5-2.154V5.27c0-1.188-1.122-2.154-2.5-2.154z" fill="#F36"/><mask id="ja" maskUnits="userSpaceOnUse" x="2" y="3" width="16" height="14"><path fill-rule="evenodd" clip-rule="evenodd" d="M6.667 8.142c.69 0 1.25-.483 1.25-1.077 0-.595-.56-1.077-1.25-1.077s-1.25.482-1.25 1.077c0 .594.56 1.077 1.25 1.077zM15 14.604H5.468l5.837-4.197c.205-.15.577-.15.777 0l3.751 2.756v.723c0 .396-.373.718-.833.718zM5 4.552h10c.46 0 .833.321.833.718v6.005l-2.669-1.962c-.825-.604-2.116-.604-2.933-.004l-6.064 4.36v-8.4c0-.396.373-.717.833-.717zm10-1.436H5c-1.378 0-2.5.966-2.5 2.154v8.616c0 1.187 1.122 2.154 2.5 2.154h10c1.378 0 2.5-.967 2.5-2.154V5.27c0-1.188-1.122-2.154-2.5-2.154z" fill="#fff"/></mask><g mask="url(#ja)"><path fill="#F36" d="M0 .962h20v17.232H0z"/></g></svg><svg fill="none" viewBox="0 0 24 24" id="icon-file-sent" xmlns="http://www.w3.org/2000/svg"><path fill-rule="evenodd" clip-rule="evenodd" d="M17.444 20H6.555C6.25 20 6 19.776 6 19.5v-15c0-.276.25-.5.555-.5H11v4.15C11 9.722 12.217 11 13.714 11H18v8.5c0 .276-.25.5-.556.5zm.205-11h-3.935C13.32 9 13 8.619 13 8.15V4h.112l4.537 5zm2.091-.672l-5.444-6a.998.998 0 00-.74-.328h-7C5.145 2 4 3.122 4 4.5v15C4 20.878 5.146 22 6.555 22h10.89C18.852 22 20 20.878 20 19.5V9a1 1 0 00-.26-.672z" fill="#2A8BF2"/><mask id="ka" maskUnits="userSpaceOnUse" x="4" y="2" width="17" height="20"><path fill-rule="evenodd" clip-rule="evenodd" d="M17.444 20H6.555C6.25 20 6 19.776 6 19.5v-15c0-.276.25-.5.555-.5H11v4.15C11 9.722 12.217 11 13.714 11H18v8.5c0 .276-.25.5-.556.5zm.205-11h-3.935C13.32 9 13 8.619 13 8.15V4h.112l4.537 5zm2.091-.672l-5.444-6a.998.998 0 00-.74-.328h-7C5.145 2 4 3.122 4 4.5v15C4 20.878 5.146 22 6.555 22h10.89C18.852 22 20 20.878 20 19.5V9a1 1 0 00-.26-.672z" fill="#2A8BF2"/></mask><g mask="url(#ka)"><path fill="#2A8BF2" d="M0 0h24v24H0z"/></g></svg><svg fill="none" viewBox="0 0 20 18" id="icon-file-video" xmlns="http://www.w3.org/2000/svg"><path fill-rule="evenodd" clip-rule="evenodd" d="M15.833 13.797c0 .294-.278.534-.62.534h-1.046v-1.436h1.666v.902zm-11.666 0v-.902h1.666v1.436H4.787c-.342 0-.62-.24-.62-.534zm.62-9.518h1.046v1.436H4.167v-.901c0-.295.278-.535.62-.535zm11.046.535v.901h-1.666V4.28h1.046c.342 0 .62.24.62.535zm-1.666 6.645h1.666v-1.436h-1.666v1.436zm0-2.872h1.666V7.151h-1.666v1.436zM7.5 14.331h5V4.28h-5v10.052zM4.167 11.46h1.666v-1.436H4.167v1.436zm0-2.872h1.666V7.151H4.167v1.436zm11.046-5.744H4.787c-1.261 0-2.287.885-2.287 1.97v8.984c0 1.086 1.026 1.97 2.287 1.97h10.426c1.261 0 2.287-.884 2.287-1.97V4.814c0-1.086-1.026-1.97-2.287-1.97z" fill="#231F20"/><mask id="la" maskUnits="userSpaceOnUse" x="2" y="2" width="16" height="14"><path fill-rule="evenodd" clip-rule="evenodd" d="M15.833 13.797c0 .294-.278.534-.62.534h-1.046v-1.436h1.666v.902zm-11.666 0v-.902h1.666v1.436H4.787c-.342 0-.62-.24-.62-.534zm.62-9.518h1.046v1.436H4.167v-.901c0-.295.278-.535.62-.535zm11.046.535v.901h-1.666V4.28h1.046c.342 0 .62.24.62.535zm-1.666 6.645h1.666v-1.436h-1.666v1.436zm0-2.872h1.666V7.151h-1.666v1.436zM7.5 14.331h5V4.28h-5v10.052zM4.167 11.46h1.666v-1.436H4.167v1.436zm0-2.872h1.666V7.151H4.167v1.436zm11.046-5.744H4.787c-1.261 0-2.287.885-2.287 1.97v8.984c0 1.086 1.026 1.97 2.287 1.97h10.426c1.261 0 2.287-.884 2.287-1.97V4.814c0-1.086-1.026-1.97-2.287-1.97z" fill="#fff"/></mask><g mask="url(#la)"><path fill="#00C305" d="M0 .689h20v17.232H0z"/></g></svg><svg fill="none" viewBox="0 0 24 24" id="icon-home" xmlns="http://www.w3.org/2000/svg"><path fill-rule="evenodd" clip-rule="evenodd" d="M15 19v-4h4l.001 4H15zm4-6h-4c-1.103 0-2 .897-2 2v4c0 1.103.897 2 2 2h4c1.103 0 2-.897 2-2v-4c0-1.103-.897-2-2-2zM5 19v-4h4l.001 4H5zm4-6H5c-1.103 0-2 .897-2 2v4c0 1.103.897 2 2 2h4c1.103 0 2-.897 2-2v-4c0-1.103-.897-2-2-2zm6-4V5h4l.001 4H15zm4-6h-4c-1.103 0-2 .897-2 2v4c0 1.103.897 2 2 2h4c1.103 0 2-.897 2-2V5c0-1.103-.897-2-2-2zM5 9V5h4l.001 4H5zm4-6H5c-1.103 0-2 .897-2 2v4c0 1.103.897 2 2 2h4c1.103 0 2-.897 2-2V5c0-1.103-.897-2-2-2z" fill="#231F20"/><mask id="ma" maskUnits="userSpaceOnUse" x="3" y="3" width="18" height="18"><path fill-rule="evenodd" clip-rule="evenodd" d="M15 19v-4h4l.001 4H15zm4-6h-4c-1.103 0-2 .897-2 2v4c0 1.103.897 2 2 2h4c1.103 0 2-.897 2-2v-4c0-1.103-.897-2-2-2zM5 19v-4h4l.001 4H5zm4-6H5c-1.103 0-2 .897-2 2v4c0 1.103.897 2 2 2h4c1.103 0 2-.897 2-2v-4c0-1.103-.897-2-2-2zm6-4V5h4l.001 4H15zm4-6h-4c-1.103 0-2 .897-2 2v4c0 1.103.897 2 2 2h4c1.103 0 2-.897 2-2V5c0-1.103-.897-2-2-2zM5 9V5h4l.001 4H5zm4-6H5c-1.103 0-2 .897-2 2v4c0 1.103.897 2 2 2h4c1.103 0 2-.897 2-2V5c0-1.103-.897-2-2-2z" fill="#fff"/></mask><g mask="url(#ma)"><path fill="#707C97" d="M0 0h24v24H0z"/></g></svg><svg fill="none" viewBox="0 0 24 24" id="icon-log_out" xmlns="http://www.w3.org/2000/svg"><path fill-rule="evenodd" clip-rule="evenodd" d="M13 12a1 1 0 11-2 0V2a1 1 0 112 0v10zm2.239-8.459a1 1 0 011.347-.43A9.973 9.973 0 0122 12.001c0 5.512-4.486 10-10 10S2 17.512 2 12a9.972 9.972 0 015.415-8.89 1 1 0 01.918 1.777A7.977 7.977 0 004 12c0 4.411 3.589 8 8 8 4.41 0 8-3.589 8-8a7.978 7.978 0 00-4.332-7.112.999.999 0 01-.43-1.347z" fill="#231F20"/><mask id="na" maskUnits="userSpaceOnUse" x="1" y="1" width="21" height="22"><path fill-rule="evenodd" clip-rule="evenodd" d="M13 12a1 1 0 11-2 0V2a1 1 0 112 0v10zm2.239-8.459a1 1 0 011.347-.43A9.973 9.973 0 0122 12.001c0 5.512-4.486 10-10 10S2 17.512 2 12a9.972 9.972 0 015.415-8.89 1 1 0 01.918 1.777A7.977 7.977 0 004 12c0 4.411 3.589 8 8 8 4.41 0 8-3.589 8-8a7.978 7.978 0 00-4.332-7.112.999.999 0 01-.43-1.347z" fill="#fff"/></mask><g mask="url(#na)"><path fill="#707C97" d="M0 0h24v24H0z"/></g></svg><svg fill="none" viewBox="0 0 24 24" id="icon-more-horizontal" xmlns="http://www.w3.org/2000/svg"><path fill-rule="evenodd" clip-rule="evenodd" d="M3 12a2 2 0 114.001.001A2 2 0 013 12zm9-2a2 2 0 10.001 4.001A2 2 0 0012 10zm7 0a2 2 0 10.001 4.001A2 2 0 0019 10z" fill="#231F20"/><mask id="oa" maskUnits="userSpaceOnUse" x="3" y="10" width="18" height="4"><path fill-rule="evenodd" clip-rule="evenodd" d="M3 12a2 2 0 114.001.001A2 2 0 013 12zm9-2a2 2 0 10.001 4.001A2 2 0 0012 10zm7 0a2 2 0 10.001 4.001A2 2 0 0019 10z" fill="#fff"/></mask><g mask="url(#oa)"><path fill="#B7BDCB" d="M0 0h24v24H0z"/></g></svg><svg fill="none" viewBox="0 0 24 24" id="icon-notifications" xmlns="http://www.w3.org/2000/svg"><path fill-rule="evenodd" clip-rule="evenodd" d="M5.515 16l1.18-1.182c.378-.378.586-.88.586-1.414V8.727c0-1.357.59-2.654 1.62-3.556a4.66 4.66 0 013.737-1.129c2.327.309 4.082 2.413 4.082 4.895v4.467c0 .534.208 1.036.585 1.413L18.485 16H5.516zM14 18.341C14 19.24 13.084 20 12 20s-2-.76-2-1.659V18h4v.341zm6.52-3.133l-1.8-1.804V8.937c0-3.481-2.502-6.438-5.82-6.877a6.722 6.722 0 00-5.317 1.607 6.728 6.728 0 00-2.302 5.06l-.001 4.677-1.801 1.804a1.631 1.631 0 00-.354 1.782c.255.614.848 1.01 1.512 1.01H8v.341C8 20.359 9.794 22 12 22s4-1.641 4-3.659V18h3.363c.664 0 1.256-.396 1.51-1.009a1.63 1.63 0 00-.352-1.783z" fill="#231F20"/><mask id="pa" maskUnits="userSpaceOnUse" x="2" y="2" width="19" height="20"><path fill-rule="evenodd" clip-rule="evenodd" d="M5.515 16l1.18-1.182c.378-.378.586-.88.586-1.414V8.727c0-1.357.59-2.654 1.62-3.556a4.66 4.66 0 013.737-1.129c2.327.309 4.082 2.413 4.082 4.895v4.467c0 .534.208 1.036.585 1.413L18.485 16H5.516zM14 18.341C14 19.24 13.084 20 12 20s-2-.76-2-1.659V18h4v.341zm6.52-3.133l-1.8-1.804V8.937c0-3.481-2.502-6.438-5.82-6.877a6.722 6.722 0 00-5.317 1.607 6.728 6.728 0 00-2.302 5.06l-.001 4.677-1.801 1.804a1.631 1.631 0 00-.354 1.782c.255.614.848 1.01 1.512 1.01H8v.341C8 20.359 9.794 22 12 22s4-1.641 4-3.659V18h3.363c.664 0 1.256-.396 1.51-1.009a1.63 1.63 0 00-.352-1.783z" fill="#fff"/></mask><g mask="url(#pa)"><path fill="#707C97" d="M0 0h24v24H0z"/></g></svg><svg fill="none" viewBox="0 0 21 22" id="icon-send" xmlns="http://www.w3.org/2000/svg"><g filter="url(#qfilter0_dd)"><path fill-rule="evenodd" clip-rule="evenodd" d="M12.39 18.333l-.052-.001a.832.832 0 01-.765-.666L10.29 11.36a.833.833 0 00-.651-.65L3.334 9.426a.832.832 0 01-.098-1.606L16.57 3.377a.834.834 0 011.054 1.053L13.18 17.763a.832.832 0 01-.79.57z" fill="#231F20"/><mask id="qa" maskUnits="userSpaceOnUse" x="2" y="3" width="16" height="16"><path fill-rule="evenodd" clip-rule="evenodd" d="M12.39 18.333l-.052-.001a.832.832 0 01-.765-.666L10.29 11.36a.833.833 0 00-.651-.65L3.334 9.426a.832.832 0 01-.098-1.606L16.57 3.377a.834.834 0 011.054 1.053L13.18 17.763a.832.832 0 01-.79.57z" fill="#fff"/></mask><g mask="url(#qa)"><path fill="#fff" d="M1 0h20v20H1z"/></g></g><defs><filter id="qfilter0_dd" x="-1" y="-1" width="24" height="24" filterUnits="userSpaceOnUse" color-interpolation-filters="sRGB"><feFlood flood-opacity="0" result="BackgroundImageFix"/><feColorMatrix in="SourceAlpha" values="0 0 0 0 0 0 0 0 0 0 0 0 0 0 0 0 0 0 127 0"/><feOffset dy="1"/><feGaussianBlur stdDeviation=".5"/><feColorMatrix values="0 0 0 0 0 0 0 0 0 0 0 0 0 0 0 0 0 0 0.03 0"/><feBlend in2="BackgroundImageFix" result="effect1_dropShadow"/><feColorMatrix in="SourceAlpha" values="0 0 0 0 0 0 0 0 0 0 0 0 0 0 0 0 0 0 127 0"/><feOffset dy="1"/><feGaussianBlur stdDeviation="1"/><feColorMatrix values="0 0 0 0 0 0 0 0 0 0 0 0 0 0 0 0 0 0 0.03 0"/><feBlend in2="effect1_dropShadow" result="effect2_dropShadow"/><feBlend in="SourceGraphic" in2="effect2_dropShadow" result="shape"/></filter></defs></svg><svg fill="none" viewBox="0 0 24 24" id="icon-setting" xmlns="http://www.w3.org/2000/svg"><path fill-rule="evenodd" clip-rule="evenodd" d="M12 7a2 2 0 10-.001-4.001A2 2 0 0012 7zm0 3a2 2 0 10.001 4.001A2 2 0 0012 10zm-2 9a2 2 0 114.001.001A2 2 0 0110 19z" fill="#231F20"/><mask id="ra" maskUnits="userSpaceOnUse" x="10" y="3" width="4" height="18"><path fill-rule="evenodd" clip-rule="evenodd" d="M12 7a2 2 0 10-.001-4.001A2 2 0 0012 7zm0 3a2 2 0 10.001 4.001A2 2 0 0012 10zm-2 9a2 2 0 114.001.001A2 2 0 0110 19z" fill="#fff"/></mask><g mask="url(#ra)"><path fill="#707C97" d="M0 0h24v24H0z"/></g></svg><svg fill="none" viewBox="0 0 24 24" id="icon-settings" xmlns="http://www.w3.org/2000/svg"><path fill-rule="evenodd" clip-rule="evenodd" d="M11.374 20h1.252v-.767c0-.935.575-1.775 1.463-2.142.92-.383 1.926-.195 2.588.471l.538.541.889-.888-.546-.544c-.663-.662-.85-1.666-.477-2.557l.002-.002.01-.028a2.324 2.324 0 012.14-1.459H20v-1.25h-.767c-.934 0-1.776-.575-2.142-1.464-.385-.92-.196-1.925.47-2.588l.541-.539-.887-.887-.544.545c-.662.662-1.665.849-2.556.477-.914-.377-1.49-1.217-1.49-2.152V4h-1.25v.767c0 .935-.575 1.775-1.464 2.142-.92.385-1.924.196-2.587-.471l-.54-.541-.887.888.545.544c.662.662.85 1.666.477 2.557-.376.913-1.217 1.489-2.152 1.489H4v1.25h.767c.935 0 1.776.575 2.142 1.464.385.92.196 1.925-.47 2.588l-.541.539.887.887.545-.545c.662-.662 1.665-.849 2.556-.477.913.377 1.489 1.217 1.489 2.152V20zm1.569 2H11.05a1.678 1.678 0 01-1.675-1.676v-1.091c0-.147-.117-.248-.227-.293-.144-.059-.298-.071-.404.032l-.77.771a1.683 1.683 0 01-2.377 0l-1.34-1.34a1.67 1.67 0 01-.492-1.19c0-.449.176-.871.495-1.189l.768-.765c.105-.105.094-.259.047-.37-.06-.147-.16-.264-.308-.264H3.683A1.684 1.684 0 012 12.943v-1.892c0-.925.752-1.676 1.677-1.676h1.09c.147 0 .248-.118.293-.228.06-.144.072-.299-.032-.403l-.771-.77a1.685 1.685 0 010-2.377l1.34-1.34a1.667 1.667 0 011.188-.492h.002c.449 0 .872.175 1.189.494l.765.769c.105.106.26.094.37.047.147-.061.264-.161.264-.308V3.683c0-.928.755-1.683 1.682-1.683h1.893c.924 0 1.676.752 1.676 1.676v1.091c0 .147.117.248.226.293.146.06.3.073.405-.032l.77-.771a1.683 1.683 0 012.377 0l1.34 1.341c.319.317.492.739.491 1.189 0 .448-.174.871-.494 1.188l-.768.766c-.105.105-.095.259-.047.37.06.147.16.264.308.264h1.083c.928 0 1.683.754 1.683 1.682v1.892c0 .925-.752 1.676-1.677 1.676h-1.09c-.146 0-.248.118-.293.228l-.014.033c-.045.111-.057.266.047.37l.77.77a1.685 1.685 0 010 2.377l-1.34 1.34a1.667 1.667 0 01-1.188.492h-.002c-.448 0-.872-.175-1.189-.494l-.765-.769c-.104-.105-.26-.093-.37-.047-.146.061-.263.161-.263.308v1.084c0 .928-.755 1.683-1.683 1.683zM12 10.5c-.827 0-1.5.673-1.5 1.5s.673 1.5 1.5 1.5 1.5-.673 1.5-1.5-.673-1.5-1.5-1.5zm0 5c-1.93 0-3.5-1.57-3.5-3.5s1.57-3.5 3.5-3.5 3.5 1.57 3.5 3.5-1.57 3.5-3.5 3.5z" fill="#231F20"/><mask id="sa" maskUnits="userSpaceOnUse" x="1" y="2" width="21" height="20"><path fill-rule="evenodd" clip-rule="evenodd" d="M11.374 20h1.252v-.767c0-.935.575-1.775 1.463-2.142.92-.383 1.926-.195 2.588.471l.538.541.889-.888-.546-.544c-.663-.662-.85-1.666-.477-2.557l.002-.002.01-.028a2.324 2.324 0 012.14-1.459H20v-1.25h-.767c-.934 0-1.776-.575-2.142-1.464-.385-.92-.196-1.925.47-2.588l.541-.539-.887-.887-.544.545c-.662.662-1.665.849-2.556.477-.914-.377-1.49-1.217-1.49-2.152V4h-1.25v.767c0 .935-.575 1.775-1.464 2.142-.92.385-1.924.196-2.587-.471l-.54-.541-.887.888.545.544c.662.662.85 1.666.477 2.557-.376.913-1.217 1.489-2.152 1.489H4v1.25h.767c.935 0 1.776.575 2.142 1.464.385.92.196 1.925-.47 2.588l-.541.539.887.887.545-.545c.662-.662 1.665-.849 2.556-.477.913.377 1.489 1.217 1.489 2.152V20zm1.569 2H11.05a1.678 1.678 0 01-1.675-1.676v-1.091c0-.147-.117-.248-.227-.293-.144-.059-.298-.071-.404.032l-.77.771a1.683 1.683 0 01-2.377 0l-1.34-1.34a1.67 1.67 0 01-.492-1.19c0-.449.176-.871.495-1.189l.768-.765c.105-.105.094-.259.047-.37-.06-.147-.16-.264-.308-.264H3.683A1.684 1.684 0 012 12.943v-1.892c0-.925.752-1.676 1.677-1.676h1.09c.147 0 .248-.118.293-.228.06-.144.072-.299-.032-.403l-.771-.77a1.685 1.685 0 010-2.377l1.34-1.34a1.667 1.667 0 011.188-.492h.002c.449 0 .872.175 1.189.494l.765.769c.105.106.26.094.37.047.147-.061.264-.161.264-.308V3.683c0-.928.755-1.683 1.682-1.683h1.893c.924 0 1.676.752 1.676 1.676v1.091c0 .147.117.248.226.293.146.06.3.073.405-.032l.77-.771a1.683 1.683 0 012.377 0l1.34 1.341c.319.317.492.739.491 1.189 0 .448-.174.871-.494 1.188l-.768.766c-.105.105-.095.259-.047.37.06.147.16.264.308.264h1.083c.928 0 1.683.754 1.683 1.682v1.892c0 .925-.752 1.676-1.677 1.676h-1.09c-.146 0-.248.118-.293.228l-.014.033c-.045.111-.057.266.047.37l.77.77a1.685 1.685 0 010 2.377l-1.34 1.34a1.667 1.667 0 01-1.188.492h-.002c-.448 0-.872-.175-1.189-.494l-.765-.769c-.104-.105-.26-.093-.37-.047-.146.061-.263.161-.263.308v1.084c0 .928-.755 1.683-1.683 1.683zM12 10.5c-.827 0-1.5.673-1.5 1.5s.673 1.5 1.5 1.5 1.5-.673 1.5-1.5-.673-1.5-1.5-1.5zm0 5c-1.93 0-3.5-1.57-3.5-3.5s1.57-3.5 3.5-3.5 3.5 1.57 3.5 3.5-1.57 3.5-3.5 3.5z" fill="#fff"/></mask><g mask="url(#sa)"><path fill="#707C97" d="M0 0h24v24H0z"/></g></svg><svg fill="none" viewBox="0 0 24 24" id="icon-smile" xmlns="http://www.w3.org/2000/svg"><circle cx="12" cy="12" r="10.75" stroke="#707C97" stroke-opacity=".5" stroke-width="2.5"/><path d="M7.636 13.636c.82 1.621 2.467 2.728 4.364 2.728 1.897 0 3.543-1.107 4.364-2.728" stroke="#707C97" stroke-opacity=".5" stroke-width="2.5" stroke-linecap="round"/><circle cx="8.727" cy="8.727" r="1.091" fill="#707C97" fill-opacity=".5"/><circle cx="15.273" cy="8.727" r="1.091" fill="#707C97" fill-opacity=".5"/></svg><svg fill="none" viewBox="0 0 14 13" id="icon-voice" xmlns="http://www.w3.org/2000/svg"><path fill-rule="evenodd" clip-rule="evenodd" d="M7 2.924c-.643 0-1.167.451-1.167 1.005v2.513c0 .555.524 1.006 1.167 1.006s1.167-.451 1.167-1.006V3.93c0-.554-.524-1.005-1.167-1.005zm2.333 3.518c0 1.11-1.046 2.01-2.333 2.01-1.287 0-2.333-.9-2.333-2.01V3.93c0-1.108 1.046-2.01 2.333-2.01 1.287 0 2.333.902 2.333 2.01v2.513zM10.5 5.94c.323 0 .583.225.583.502 0 1.77-1.524 3.233-3.5 3.478v1.046h1.228c.288 0 .522.202.522.45v.105c0 .248-.234.45-.522.45H5.19c-.288 0-.522-.202-.522-.45v-.106c0-.247.234-.45.522-.45h1.228V9.92c-1.976-.245-3.5-1.708-3.5-3.478 0-.277.26-.502.583-.502.323 0 .583.225.583.502 0 1.386 1.309 2.513 2.917 2.513 1.608 0 2.917-1.127 2.917-2.513 0-.277.26-.502.583-.502z" fill="#231F20"/><mask id="ua" maskUnits="userSpaceOnUse" x="2" y="1" width="10" height="11"><path fill-rule="evenodd" clip-rule="evenodd" d="M7 2.924c-.643 0-1.167.451-1.167 1.005v2.513c0 .555.524 1.006 1.167 1.006s1.167-.451 1.167-1.006V3.93c0-.554-.524-1.005-1.167-1.005zm2.333 3.518c0 1.11-1.046 2.01-2.333 2.01-1.287 0-2.333-.9-2.333-2.01V3.93c0-1.108 1.046-2.01 2.333-2.01 1.287 0 2.333.902 2.333 2.01v2.513zM10.5 5.94c.323 0 .583.225.583.502 0 1.77-1.524 3.233-3.5 3.478v1.046h1.228c.288 0 .522.202.522.45v.105c0 .248-.234.45-.522.45H5.19c-.288 0-.522-.202-.522-.45v-.106c0-.247.234-.45.522-.45h1.228V9.92c-1.976-.245-3.5-1.708-3.5-3.478 0-.277.26-.502.583-.502.323 0 .583.225.583.502 0 1.386 1.309 2.513 2.917 2.513 1.608 0 2.917-1.127 2.917-2.513 0-.277.26-.502.583-.502z" fill="#fff"/></mask><g mask="url(#ua)"><path fill="#707C97" d="M0 .914h14v12.062H0z"/></g></svg><svg fill="none" viewBox="0 0 24 24" id="plus" xmlns="http://www.w3.org/2000/svg"><path fill-rule="evenodd" clip-rule="evenodd" d="M19 11h-6V5a1 1 0 10-2 0v6H5a1 1 0 100 2h6v6a1 1 0 102 0v-6h6a1 1 0 100-2z" fill="#231F20"/><mask id="va" maskUnits="userSpaceOnUse" x="4" y="4" width="16" height="16"><path fill-rule="evenodd" clip-rule="evenodd" d="M19 11h-6V5a1 1 0 10-2 0v6H5a1 1 0 100 2h6v6a1 1 0 102 0v-6h6a1 1 0 100-2z" fill="#fff"/></mask><g mask="url(#va)"><path fill="#fff" d="M0 0h24v24H0z"/></g></svg><svg fill="none" viewBox="0 0 24 24" id="search" xmlns="http://www.w3.org/2000/svg"><path fill-rule="evenodd" clip-rule="evenodd" d="M5 11c0-3.309 2.691-6 6-6s6 2.691 6 6-2.691 6-6 6-6-2.691-6-6zm15.707 8.293l-3.395-3.396A7.952 7.952 0 0019 11c0-4.411-3.589-8-8-8s-8 3.589-8 8 3.589 8 8 8a7.952 7.952 0 004.897-1.688l3.396 3.395a.997.997 0 001.414 0 .999.999 0 000-1.414z" fill="#231F20"/><mask id="wa" maskUnits="userSpaceOnUse" x="3" y="3" width="19" height="18"><path fill-rule="evenodd" clip-rule="evenodd" d="M5 11c0-3.309 2.691-6 6-6s6 2.691 6 6-2.691 6-6 6-6-2.691-6-6zm15.707 8.293l-3.395-3.396A7.952 7.952 0 0019 11c0-4.411-3.589-8-8-8s-8 3.589-8 8 3.589 8 8 8a7.952 7.952 0 004.897-1.688l3.396 3.395a.997.997 0 001.414 0 .999.999 0 000-1.414z" fill="#fff"/></mask><g mask="url(#wa)"><path fill="#707C97" d="M0 0h24v24H0z"/></g></svg></svg>